PathFileType	4	(x/y/z)	S08_M20_T09
DataRate	CameraRate	NumFrames	NumMarkers	Units	OrigDataRate	OrigDataStartFrame	OrigNumFrames
240	240	4	51	mm	240	256	510
Frame#	Time	Sternum			R.Acromium			L.Acromium			Top.Head			R.ASIS			L.ASIS			R.PSIS			L.PSIS			R.Great.Tro			L.Great.Tro			R.Iliac.Crest			L.Iliac.Crest			V.Sacral			R.Thigh.Upper.Post			R.Thigh.Lower.Ant			R.Thigh.Lower.Post			R.Thigh.Upper.Ant			R.Knee.Lat			R.Knee.Med			R.Shank.Upper.Post			R.Shank.Lower.Ant			R.Shank.Lower.Post			R.Shank.Upper.Ant			R.Ankle.Lat			R.Ankle.Med			R.Heel.Upper			R.Heel.Med			R.Heel.Lat			R.Toe.Lat			R.Toe.Med			R.Toe.Tip			L.Thigh.Upper.Post			L.Thigh.Lower.Ant			L.Thigh.Lower.Post			L.Thigh.Upper.Ant			L.Knee.Lat			L.Knee.Med			L.Shank.Upper.Post			L.Shank.Lower.Ant			L.Shank.Lower.Post			L.Shank.Upper.Ant			L.Ankle.Lat			L.Ankle.Med			L.Heel.Upper			L.Heel.Med			L.Heel.Lat			L.Toe.Lat			L.Toe.Med			L.Toe.Tip			Cervical.Spine			Back			
		X1	Y1	Z1	X2	Y2	Z2	X3	Y3	Z3	X4	Y4	Z4	X5	Y5	Z5	X6	Y6	Z6	X7	Y7	Z7	X8	Y8	Z8	X9	Y9	Z9	X10	Y10	Z10	X11	Y11	Z11	X12	Y12	Z12	X13	Y13	Z13	X14	Y14	Z14	X15	Y15	Z15	X16	Y16	Z16	X17	Y17	Z17	X18	Y18	Z18	X19	Y19	Z19	X20	Y20	Z20	X21	Y21	Z21	X22	Y22	Z22	X23	Y23	Z23	X24	Y24	Z24	X25	Y25	Z25	X26	Y26	Z26	X27	Y27	Z27	X28	Y28	Z28	X29	Y29	Z29	X30	Y30	Z30	X31	Y31	Z31	X32	Y32	Z32	X33	Y33	Z33	X34	Y34	Z34	X35	Y35	Z35	X36	Y36	Z36	X37	Y37	Z37	X38	Y38	Z38	X39	Y39	Z39	X40	Y40	Z40	X41	Y41	Z41	X42	Y42	Z42	X43	Y43	Z43	X44	Y44	Z44	X45	Y45	Z45	X46	Y46	Z46	X47	Y47	Z47	X48	Y48	Z48	X49	Y49	Z49	X50	Y50	Z50	X51	Y51	Z51	

256	1.0625	-239.4	1239.6	346.67	-351.73	1464.6	530.97	-369.21	1504.6	196.98	-332.52	1790.7	387.66	-257.41	1024.9	466.14	-245.01	1021.8	235.42	-455.03	1048	379.19	-445.87	1048.7	286.16	-334.38	913.79	532.71	-321.93	912.95	162.92	-353.93	1093.4	505.03	-341.28	1100.7	197.27	-467.68	1007.3	331.54	-376.31	715.64	509.55	-309.92	610.97	471.21	-378.55	626.73	486.99	-298.84	702.68	496.81	-354.69	518.05	458.97	-383.88	528.56	334.75	-442.99	341.98	460.27	-390.92	275.07	431.48	-453.61	266.58	447.24	-380.19	350.84	445.61	-476.21	102.92	398.53	-451.11	119.32	322.29	-529.85	70.278	351.54	-520.26	42.33	325.05	-525.12	47.401	386.78	NaN	NaN	NaN	-330.86	42.574	310.39	-264.67	52.358	358.04	-242.03	709.98	176.47	-125.45	666.23	199.09	-188.63	637.68	193.87	-174.74	738.09	176.39	-141.05	559.84	211.53	-135.08	553.37	338.14	-255.26	425.51	198.75	-230.61	317.3	212.54	-288.38	359.77	209.01	-201.88	387.73	202.84	-343.45	195.76	208.85	-319.82	186.41	293.83	-404.6	186.67	257.98	-405.34	148.57	285.78	-408.64	161.04	221.99	-250.43	86.729	186.46	-231.13	75.834	299.29	-165.52	73.944	251.46	-427.49	1529.3	363.07	-475.06	1244.2	362.75
257	1.0667	-234.61	1239.1	346.69	-346.81	1464.3	530.89	-364.16	1504.2	196.9	-327.34	1790.3	387.43	-252.9	1024.5	466.19	-240.17	1021.5	235.5	-450.4	1047.6	378.87	-441.11	1048.3	285.85	-330.31	913.58	532.65	-316.76	912.77	162.8	-349.46	1093	504.87	-336.3	1100.5	197.15	-462.97	1007	331.22	-373.54	715.79	509.64	-307.8	610.69	471.28	-376.31	626.86	487.09	-296.21	702.37	496.82	-353.18	517.96	459.1	-382.24	528.61	334.82	-442.18	342.21	460.32	-390.3	275.17	431.62	-453	266.84	447.31	-379.35	350.86	445.71	-476.01	103.17	398.46	-450.69	119.58	322.26	-529.84	70.561	351.43	-520.03	42.52	325	-525.04	47.627	386.68	NaN	NaN	NaN	-330.79	42.536	310.39	-264.55	52.218	358.1	-235.97	710.11	176.48	-119.23	666.99	199.35	-182.21	638.12	194	-168.83	738.57	176.55	-134.06	560.36	211.82	-128.43	554.05	338.31	-245.72	423.39	198.76	-218.79	315.72	212.88	-277.44	356.97	209.08	-191.56	386.75	203.1	-328.98	191.69	209.01	-305.17	182.98	294.13	-390.03	181.04	258.06	-389.79	142.96	285.98	-393.32	155.2	222.14	-233.1	85.024	187.04	-213.7	74.889	299.95	-147.98	74.616	252.22	-422.45	1529	362.98	-470.3	1243.9	362.7
258	1.0708	-229.82	1238.6	346.7	-341.86	1464	530.79	-359.11	1503.8	196.81	-322.17	1789.9	387.2	-248.38	1024.2	466.24	-235.34	1021.2	235.56	-445.75	1047.2	378.55	-436.34	1047.9	285.54	-326.21	913.35	532.59	-311.62	912.55	162.67	-344.97	1092.7	504.71	-331.3	1100.1	197.01	-458.25	1006.6	330.92	-370.73	715.92	509.73	-305.65	610.4	471.35	-374.03	627	487.22	-293.56	702.05	496.83	-351.66	517.86	459.24	-380.58	528.66	334.9	-441.36	342.44	460.38	-389.68	275.26	431.75	-452.38	267.11	447.38	-378.48	350.87	445.81	-475.81	103.43	398.4	-450.27	119.84	322.23	-529.82	70.864	351.34	-519.79	42.728	324.95	-524.97	47.866	386.58	NaN	NaN	NaN	-330.71	42.505	310.39	-264.43	52.084	358.17	-230	710.17	176.48	-113.11	667.66	199.6	-175.9	638.47	194.13	-162.99	738.97	176.71	-127.2	560.8	212.09	-121.9	554.63	338.48	-236.21	421.2	198.8	-206.98	314.14	213.24	-266.5	354.13	209.17	-181.27	385.73	203.37	-314.4	187.65	209.21	-290.45	179.59	294.47	-375.33	175.43	258.18	-374.1	137.4	286.23	-377.86	149.4	222.35	-215.76	83.418	187.65	-196.26	74.053	300.63	-130.48	75.398	252.99	-417.41	1528.6	362.88	-465.53	1243.6	362.64
259	1.075	-225.01	1238.1	346.69	-336.9	1463.6	530.69	-354.06	1503.3	196.72	-317	1789.4	386.95	-243.84	1023.7	466.27	-230.49	1020.9	235.61	-441.09	1046.8	378.23	-431.55	1047.5	285.23	-322.1	913.12	532.54	-306.49	912.29	162.55	-340.45	1092.3	504.54	-326.3	1099.8	196.86	-453.52	1006.2	330.62	-367.89	716.04	509.83	-303.46	610.12	471.43	-371.73	627.12	487.35	-290.88	701.73	496.85	-350.11	517.77	459.39	-378.91	528.71	334.99	-440.53	342.67	460.45	-389.04	275.35	431.89	-451.75	267.38	447.46	-377.6	350.89	445.91	-475.6	103.7	398.35	-449.86	120.11	322.22	-529.8	71.184	351.26	-519.55	42.956	324.92	-524.89	48.119	386.5	NaN	NaN	NaN	-330.64	42.484	310.39	-264.32	51.956	358.24	-224.1	710.17	176.47	-107.07	668.23	199.84	-169.69	638.74	194.25	-157.23	739.28	176.86	-120.45	561.15	212.35	-115.48	555.13	338.64	-226.72	418.96	198.85	-195.19	312.56	213.62	-255.55	351.26	209.28	-171.04	384.69	203.65	-299.74	183.65	209.46	-275.66	176.24	294.84	-360.5	169.86	258.35	-358.26	131.9	286.53	-362.26	143.67	222.62	-198.41	81.918	188.28	-178.82	73.334	301.33	-113.03	76.294	253.77	-412.36	1528.2	362.77	-460.74	1243.3	362.59
